<svg width="38" height="38" viewBox="0 0 38 38" fill="none" xmlns="http://www.w3.org/2000/svg">
<path d="M6.53865 19.5256C6.86234 19.5256 7.08487 19.3008 7.12533 18.9738C7.77271 15.0091 7.8334 14.8047 11.9604 14.0894C12.2841 14.0281 12.5066 13.8237 12.5066 13.4968C12.5066 13.1698 12.2841 12.9654 11.9806 12.9041C7.84601 12.1539 7.81343 11.9669 7.14147 8.11228L7.12533 8.01972C7.06464 7.69274 6.86234 7.46793 6.53865 7.46793C6.21497 7.46793 6.01266 7.69274 5.95197 8.01972C5.3046 12.0049 5.26414 12.2092 1.11691 12.9041C0.793228 12.9654 0.570694 13.1698 0.570694 13.4968C0.570694 13.8237 0.793228 14.0281 1.09668 14.0894C5.22411 14.8181 5.26375 15.0456 5.93234 18.8816L5.95197 18.9942C6.01266 19.3008 6.21497 19.5256 6.53865 19.5256Z" fill="#C832CB"/>
<path fill-rule="evenodd" clip-rule="evenodd" d="M27.1882 12.8234C27.5119 12.8234 27.7142 12.5782 27.7749 12.2716L27.8159 12.0482C28.5032 8.29889 28.5417 8.08884 32.5897 7.38724C32.9336 7.32593 33.1562 7.12156 33.1562 6.79457C33.1562 6.46759 32.9336 6.26322 32.6099 6.20191C28.4627 5.44575 28.402 5.26182 27.7749 1.31754C27.7142 0.990551 27.5119 0.765747 27.1882 0.765747C26.8645 0.765747 26.642 0.990551 26.6015 1.31754L26.5691 1.50003C25.8931 5.31039 25.8491 5.55806 21.7462 6.20191C21.4428 6.24278 21.2 6.46759 21.2 6.79457C21.2202 7.12156 21.4225 7.32593 21.7462 7.38724C25.9137 8.12296 25.9542 8.32733 26.6015 12.2716C26.642 12.5782 26.8645 12.8234 27.1882 12.8234ZM33.3382 36.4891C34.3295 37.5109 36.0289 37.4905 36.9999 36.4891C37.9912 35.4468 37.971 33.8119 36.9999 32.7901L17.7811 13.273C16.7898 12.2716 15.0904 12.2716 14.1194 13.273C13.1281 14.3153 13.1483 15.9707 14.1194 16.9721L33.3382 36.4891ZM21.9283 22.3265L15.839 16.175C15.4344 15.7458 15.2927 15.2554 15.6973 14.8466C16.0615 14.4788 16.5673 14.581 17.0123 15.0101L23.0814 21.1616L21.9283 22.3265ZM8.45486 37C8.8797 37 9.18315 36.7139 9.24384 36.2439C9.89122 30.726 10.1542 30.5625 15.7176 29.6837C16.2233 29.6019 16.5268 29.3363 16.5268 28.8866C16.5268 28.4575 16.2233 28.1714 15.8187 28.0896L15.5258 28.0324C10.1644 26.9858 9.87983 26.9302 9.24384 21.5294C9.18315 21.0594 8.8797 20.7733 8.45486 20.7733C8.03002 20.7733 7.72656 21.0594 7.66587 21.509C6.97804 27.1087 6.77573 27.313 1.11123 28.0896C0.706621 28.1305 0.382935 28.4575 0.382935 28.8866C0.382935 29.3158 0.68639 29.6019 1.091 29.6837L1.18979 29.7028C6.79786 30.7874 6.96192 30.8192 7.66587 36.2847C7.72656 36.7139 8.03002 37 8.45486 37Z" fill="#C832CB"/>
</svg>
